<svg width="42" height="65" viewBox="0 0 42 65" fill="none" xmlns="http://www.w3.org/2000/svg">
<path d="M9.32748 5.726C10.4194 5.33662 11.5994 5.2651 12.7303 5.51976C13.8612 5.77442 14.8967 6.3448 15.7163 7.1646C16.5359 7.98441 17.1061 9.01998 17.3605 10.151C17.6149 11.282 17.5431 12.4619 17.1535 13.5537L36.1322 32.5325L32.4187 36.246L13.44 17.2672C12.3479 17.6568 11.1677 17.7285 10.0365 17.4737C8.90531 17.219 7.86967 16.6485 7.04996 15.8284C6.23026 15.0083 5.66016 13.9724 5.40596 12.8412C5.15176 11.7099 5.2239 10.5297 5.61398 9.43775L9.52698 13.3525C10.0221 13.8307 10.6851 14.0952 11.3734 14.0893C12.0617 14.0833 12.7201 13.8072 13.2068 13.3205C13.6935 12.8338 13.9695 12.1754 13.9755 11.4872C13.9815 10.7989 13.7169 10.1358 13.2387 9.64075L9.32748 5.726ZM27.4697 9.02125L33.0382 5.92725L35.5127 8.4035L32.4187 13.972L29.3247 14.5897L25.6147 18.3015L23.1385 15.827L26.8502 12.1152L27.4697 9.02125ZM15.0955 22.6327L18.8072 26.3462L10.1447 35.0087C9.66705 35.482 9.02599 35.7538 8.35375 35.7683C7.68151 35.7827 7.02936 35.5387 6.53178 35.0864C6.0342 34.6342 5.72913 34.0082 5.67949 33.3377C5.62985 32.6671 5.83942 32.0031 6.26498 31.4825L6.43473 31.2952L15.0955 22.6327Z" fill="black"/>
<path d="M32.6055 45.8812C33.8096 45.4727 34.3856 44.1321 33.8785 42.8911C33.3714 41.6383 31.9749 40.9555 30.7708 41.3652C29.5667 41.7749 28.9896 43.1144 29.4966 44.3565C30.0037 45.5974 31.4002 46.2921 32.6043 45.8824M17.2535 42.8959C17.7594 44.1368 17.1846 45.4775 15.9805 45.8872C14.7752 46.2838 13.3787 45.6022 12.8716 44.3601C12.3657 43.1191 12.9405 41.7666 14.1446 41.3687C15.3499 40.9591 16.7464 41.6419 17.2535 42.8959Z" fill="black"/>
<path d="M37.6369 45.5487V44.8172H37.6404V42.4375C37.6404 42.3888 37.6464 42.3663 37.6476 42.3603L37.6571 42.3389L37.7176 42.2594C37.758 42.2143 37.8043 42.1656 37.8827 42.0872L37.9053 42.0634C38.2164 41.7488 38.803 41.1562 38.8125 40.0839V40.0554C38.8116 39.4285 38.5624 38.8275 38.1196 38.3837C37.6768 37.94 37.0763 37.6897 36.4494 37.6875H25.7381C25.6083 37.6875 25.4804 37.6978 25.3546 37.7184C24.2616 37.8531 23.2489 38.3616 22.4879 39.1576C22.3834 39.2574 22.2861 39.3547 22.2029 39.4379L22.1982 39.4426C21.9263 39.7134 21.7897 39.8416 21.6365 39.9295C21.5177 39.9972 21.3432 40.0672 21.0036 40.0672C20.6414 40.0672 20.4656 39.996 20.354 39.9319C20.2056 39.8488 20.0726 39.7241 19.7947 39.4438L19.7887 39.4379C19.6973 39.3464 19.5904 39.2372 19.4717 39.1256C18.7217 38.3529 17.7314 37.858 16.6632 37.7219C16.5307 37.6991 16.3964 37.6876 16.2619 37.6875H5.55063C4.2325 37.6875 3.1875 38.7681 3.1875 40.0613V40.0625C3.1875 41.1514 3.79312 41.7535 4.11137 42.0694L4.13512 42.0931C4.21588 42.1727 4.26456 42.2214 4.30613 42.2689C4.33429 42.3006 4.35897 42.3352 4.37975 42.3722C4.38608 42.3966 4.38849 42.4218 4.38688 42.447V42.5978C4.38212 42.6947 4.37975 42.7917 4.37975 42.8888V45.5487C4.37975 49.6076 7.43162 53.1131 11.4252 53.1131H13.7681C17.8412 53.1131 21 49.5447 21 45.3706C21 49.5447 24.1516 53.1012 28.2283 53.1012H30.5736C34.5494 53.1012 37.6369 49.6302 37.6369 45.5487ZM35.2536 45.5369C35.2536 48.3869 33.1932 50.7559 30.5629 50.7559H28.2164C25.4971 50.7559 23.3833 48.3156 23.3833 45.3587V42.8888C23.3928 41.3331 24.4568 40.0625 25.8925 40.0625H32.7325C34.1694 40.0625 35.2536 41.3331 35.2536 42.8888V45.5369ZM13.7681 50.7547H11.4359C8.80794 50.7547 6.75356 48.3988 6.75356 45.5487V42.8888C6.75356 41.3331 7.83419 40.0625 9.2675 40.0625H16.1111C17.5456 40.0625 18.6321 41.3331 18.6321 42.8888V45.3706C18.6321 48.3156 16.4946 50.7547 13.7681 50.7547Z" fill="black"/>
</svg>
